HIERARCHY
ROOT hip
{
	OFFSET 0.000000 0.000000 0.000000
	CHANNELS 6 Xposition Yposition Zposition Zrotation Yrotation Xrotation 
	JOINT lhipjoint
	{
		OFFSET 0.000000 0.000000 0.000000
		CHANNELS 3 Zrotation Yrotation Xrotation
		JOINT lfemur
		{
			OFFSET 1.363060 -1.794630 0.839290
			CHANNELS 3 Zrotation Yrotation Xrotation
			JOINT ltibia
			{
				OFFSET 2.448110 -6.726130 0.000000
				CHANNELS 3 Zrotation Yrotation Xrotation
				JOINT lfoot
				{
					OFFSET 2.562200 -7.039590 0.000000
					CHANNELS 3 Zrotation Yrotation Xrotation
					JOINT ltoes
					{
						OFFSET 0.157640 -0.433110 2.322550
						CHANNELS 3 Zrotation Yrotation Xrotation
						End Site
						{
							OFFSET 0.000000 0.000000 0.000000
						}
					}
				}
			}
		}
	}
	JOINT rhipjoint
	{
		OFFSET 0.000000 0.000000 0.000000
		CHANNELS 3 Zrotation Yrotation Xrotation
		JOINT rfemur
		{
			OFFSET -1.305520 -1.794630 0.839290
			CHANNELS 3 Zrotation Yrotation Xrotation
			JOINT rtibia
			{
				OFFSET -2.542530 -6.985550 0.000000
				CHANNELS 3 Zrotation Yrotation Xrotation
				JOINT rfoot
				{
					OFFSET -2.568260 -7.056230 0.000000
					CHANNELS 3 Zrotation Yrotation Xrotation
					JOINT rtoes
					{
						OFFSET -0.164730 -0.452590 2.363150
						CHANNELS 3 Zrotation Yrotation Xrotation
						End Site
						{
							OFFSET 0.000000 0.000000 0.000000
						}
					}
				}
			}
		}
	}
	JOINT lowerback
	{
		OFFSET 0.000000 0.000000 0.000000
		CHANNELS 3 Zrotation Yrotation Xrotation
		JOINT upperback
		{
			OFFSET 0.028270 2.035590 -0.193380
			CHANNELS 3 Zrotation Yrotation Xrotation
			JOINT thorax
			{
				OFFSET 0.056720 2.048850 -0.042750
				CHANNELS 3 Zrotation Yrotation Xrotation
				JOINT lowerneck
				{
					OFFSET 0.000000 0.000000 0.000000
					CHANNELS 3 Zrotation Yrotation Xrotation
					JOINT upperneck
					{
						OFFSET -0.054170 1.746240 0.172020
						CHANNELS 3 Zrotation Yrotation Xrotation
						JOINT head
						{
							OFFSET 0.104070 1.761360 -0.123970
							CHANNELS 3 Zrotation Yrotation Xrotation
							End Site
							{
								OFFSET 0.000000 0.000000 0.000000
							}
						}
					}
				}
				JOINT lclavicle
				{
					OFFSET 0.000000 0.000000 0.000000
					CHANNELS 3 Zrotation Yrotation Xrotation
					JOINT lhumerus
					{
						OFFSET 3.362410 1.200890 -0.311210
						CHANNELS 3 Zrotation Yrotation Xrotation
						JOINT lradius
						{
							OFFSET 4.983000 -0.000000 -0.000000
							CHANNELS 3 Zrotation Yrotation Xrotation
							JOINT lwrist
							{
								OFFSET 3.483560 -0.000000 -0.000000
								CHANNELS 3 Zrotation Yrotation Xrotation
								JOINT lhand
								{
									OFFSET 0.000000 0.000000 0.000000
									CHANNELS 3 Zrotation Yrotation Xrotation
									JOINT lfingers
									{
										OFFSET 0.715260 -0.000000 -0.000000
										CHANNELS 3 Zrotation Yrotation Xrotation
										End Site
										{
											OFFSET 0.000000 0.000000 0.000000
										}
									}
								}
								JOINT lthumb
								{
									OFFSET 0.000000 0.000000 0.000000
									CHANNELS 3 Zrotation Yrotation Xrotation
									End Site
									{
										OFFSET 0.000000 0.000000 0.000000
									}
								}
							}
						}
					}
				}
				JOINT rclavicle
				{
					OFFSET 0.000000 0.000000 0.000000
					CHANNELS 3 Zrotation Yrotation Xrotation
					JOINT rhumerus
					{
						OFFSET -3.136600 1.374050 -0.404650
						CHANNELS 3 Zrotation Yrotation Xrotation
						JOINT rradius
						{
							OFFSET -5.241900 -0.000000 -0.000000
							CHANNELS 3 Zrotation Yrotation Xrotation
							JOINT rwrist
							{
								OFFSET -3.444170 -0.000000 -0.000000
								CHANNELS 3 Zrotation Yrotation Xrotation
								JOINT rhand
								{
									OFFSET 0.000000 0.000000 0.000000
									CHANNELS 3 Zrotation Yrotation Xrotation
									JOINT rfingers
									{
										OFFSET -0.622530 -0.000000 -0.000000
										CHANNELS 3 Zrotation Yrotation Xrotation
										End Site
										{
											OFFSET 0.000000 0.000000 0.000000
										}
									}
								}
								JOINT rthumb
								{
									OFFSET 0.000000 0.000000 0.000000
									CHANNELS 3 Zrotation Yrotation Xrotation
									End Site
									{
										OFFSET 0.000000 0.000000 0.000000
									}
								}
							}
						}
					}
				}
			}
		}
	}
}
MOTION
Frames: 7
Frame Time: 0.008333
-1.906805 17.033559 1.031370 -173.865820 -2.328821 166.913007 4.087188 3.595082 -0.200653 -13.580791 9.412407 21.154838 -0.567760 -1.656356 0.299365 0.121906 1.373112 12.633542 0.385700 -3.988000 -11.042900 -7.003020 -3.646404 -1.738909 31.675454 4.909470 0.367515 -3.367961 -7.138540 23.609234 0.552036 -5.320760 1.564541 -0.872600 5.955800 -16.656300 3.027010 -1.765189 19.969624 1.335035 -2.282249 -3.037122 4.394285 -1.134674 -0.108551 -12.042004 -4.513011 -13.768342 10.685020 -6.763188 12.547668 4.365100 -2.942000 3.066200 -3.334947 -9.516954 4.168810 -19.036843 5.249337 -12.619721 53.165158 -49.381863 -32.509894 0.980373 -1.198817 98.326066 14.999076 15.408736 3.512000 -7.125000 0.000000 0.000000 -12.451100 44.332100 0.208600 6.480828 8.553622 5.471430 25.760363 -12.146739 -18.409788 -84.738572 53.045913 -59.014960 0.001938 -0.041603 -27.970977 -30.519537 8.159812 -4.805900 7.125000 0.000000 0.000000 -2.617700 -20.483500 -1.537700 
-1.886781 17.030754 0.981455 -173.834106 -2.626321 166.843181 4.093792 3.583122 -0.197227 -13.485331 9.232966 21.419752 -0.568999 -1.659363 0.300113 0.141082 1.275572 12.558321 0.422600 -4.172400 -11.562100 -6.996958 -3.629997 -1.751075 31.751247 5.010755 0.657368 -3.350273 -7.098877 23.494610 0.558442 -5.349335 1.523468 -0.816900 5.767400 -16.111000 3.023634 -1.829625 19.856361 1.333252 -2.363861 -3.045100 4.499760 -1.168302 -0.151369 -12.135899 -4.543121 -13.538521 10.598166 -6.825435 12.721577 4.376800 -2.989700 3.061100 -3.487828 -9.517275 4.223573 -15.745616 4.613863 -12.960539 52.795419 -49.102652 -32.416515 1.037706 -1.383407 97.329162 15.106564 16.350724 3.702300 -7.125000 0.000000 0.000000 -12.784200 45.217400 -0.069800 6.648947 8.507766 5.466207 22.303647 -11.478170 -19.353524 -84.476040 53.203828 -59.058224 -0.078227 0.160606 -27.653170 -31.472884 8.551468 -5.076300 7.125000 0.000000 0.000000 -3.305000 -20.231900 -1.961400 
-1.866564 17.028336 0.929896 -173.806839 -2.923760 166.805073 4.100294 3.571828 -0.194150 -13.400266 9.047511 21.654424 -0.570293 -1.662258 0.300508 0.160899 1.172691 12.467982 0.472500 -4.408500 -12.228700 -6.991591 -3.616103 -1.760436 31.822062 5.099383 0.905001 -3.341044 -7.077301 23.435934 0.567077 -5.397708 1.436394 -0.735500 5.479100 -15.280300 3.014376 -1.900462 19.699256 1.332989 -2.455538 -3.054011 4.611257 -1.204764 -0.194014 -12.249899 -4.560445 -13.294054 10.512897 -6.871333 12.899129 4.395700 -3.029500 3.050600 -3.604110 -9.533614 4.270973 -12.598114 3.973608 -13.556296 52.126861 -48.753262 -32.020854 1.095842 -1.565581 96.767262 15.394817 17.088183 3.894700 -7.125000 0.000000 0.000000 -12.895500 45.915200 -0.296200 6.781974 8.477092 5.447022 19.019367 -10.770252 -20.340348 -83.845143 53.343106 -58.657409 -0.148668 0.327705 -27.427600 -32.373031 9.135062 -5.487000 7.125000 0.000000 0.000000 -3.922000 -19.710700 -2.375000 
-1.844896 17.026498 0.875629 -173.780663 -3.213960 166.748325 4.107782 3.560552 -0.192388 -13.303789 8.871466 21.913471 -0.571412 -1.664933 0.301121 0.179953 1.074692 12.384244 0.523700 -4.638000 -12.878800 -6.982708 -3.601464 -1.775677 31.893816 5.131508 1.164786 -3.335226 -7.066213 23.409719 0.575517 -5.444483 1.344728 -0.666200 5.220000 -14.537100 3.005695 -1.958219 19.541360 1.328733 -2.532569 -3.058086 4.685133 -1.232650 -0.233352 -12.307448 -4.595309 -13.012903 10.406159 -6.946227 13.060489 4.390800 -3.083100 3.017400 -3.682466 -9.559465 4.312941 -9.551243 3.305717 -14.349226 51.291909 -48.384223 -31.439476 1.150720 -1.744462 96.554089 15.784827 17.546078 4.054200 -7.125000 0.000000 0.000000 -12.823900 46.345300 -0.432800 6.887063 8.465718 5.422456 15.935385 -10.052593 -21.432429 -82.942377 53.466387 -57.939848 -0.210767 0.468523 -27.314865 -33.087061 9.878881 -5.995400 7.125000 0.000000 0.000000 -4.377100 -18.976300 -2.723800 
-1.822357 17.024950 0.818847 -173.779424 -3.499713 166.701895 4.112727 3.549813 -0.189813 -13.225018 8.705143 22.173809 -0.572446 -1.667809 0.301689 0.198109 0.973968 12.267918 0.575200 -4.856700 -13.500400 -6.975981 -3.587290 -1.791426 31.957153 5.142812 1.413407 -3.334743 -7.065490 23.416349 0.589098 -5.533747 1.226184 -0.604500 4.976800 -13.842300 2.941436 -2.014375 19.367188 1.330823 -2.614435 -3.064019 4.835808 -1.264114 -0.281835 -12.455241 -4.608163 -12.719727 10.321464 -6.990550 13.222099 4.415000 -3.122400 2.983400 -3.730098 -9.606136 4.347425 -6.672408 2.662078 -15.330233 50.328669 -47.993796 -30.735696 1.199748 -1.919553 96.447067 16.361375 17.685322 4.196800 -7.125000 0.000000 0.000000 -12.479300 46.485900 -0.464700 6.963458 8.462040 5.382095 12.838037 -9.321378 -22.454801 -81.842581 53.582041 -56.954281 -0.267967 0.583373 -27.309000 -33.751432 10.668191 -6.559100 7.125000 0.000000 0.000000 -4.775500 -18.150200 -3.061000 
-1.798948 17.023596 0.759839 -173.752081 -3.774601 166.653671 4.117576 3.540202 -0.186702 -13.111617 8.539682 22.438906 -0.573248 -1.670306 0.302384 0.218467 0.867289 12.164250 0.630600 -5.081100 -14.140100 -6.966537 -3.577129 -1.809842 32.042275 5.062295 1.637978 -3.335219 -7.072574 23.446933 0.597676 -5.583012 1.125321 -0.564100 4.810600 -13.369100 2.912819 -2.067028 19.178163 1.331067 -2.687886 -3.068121 4.936097 -1.288948 -0.326311 -12.566961 -4.630137 -12.438286 10.243944 -7.048739 13.400603 4.430700 -3.166500 2.961300 -3.744385 -9.660594 4.371413 -3.894255 2.028123 -16.436546 49.379532 -47.640401 -30.006266 1.242995 -2.083243 96.357019 16.955936 17.672945 4.312300 -7.125000 0.000000 0.000000 -12.062800 46.484600 -0.448400 7.013227 8.477127 5.332086 9.804719 -8.628421 -23.463346 -80.631293 53.697107 -55.837967 -0.322729 0.685409 -27.377781 -34.341682 11.404270 -7.097500 7.125000 0.000000 0.000000 -5.116400 -17.370400 -3.369100 
-1.774571 17.022532 0.699188 -173.747925 -4.057634 166.610134 4.122062 3.531168 -0.184370 -13.019107 8.369211 22.702822 -0.574335 -1.672478 0.302841 0.238476 0.764445 12.069014 0.691600 -5.316500 -14.813600 -6.956923 -3.566614 -1.830757 32.112328 4.956934 1.847061 -3.341715 -7.092301 23.516312 0.609418 -5.658964 0.992944 -0.528500 4.658600 -12.937400 2.846959 -2.115704 18.974850 1.332834 -2.763082 -3.069239 5.041483 -1.314862 -0.358503 -12.672601 -4.654054 -12.155105 10.162869 -7.109191 13.558877 4.438300 -3.210400 2.926900 -3.729918 -9.722617 4.390908 -1.390819 1.399650 -17.821477 48.601490 -47.387289 -29.418963 1.273589 -2.237364 96.369302 17.729926 17.453269 4.431300 -7.125000 0.000000 0.000000 -11.412900 46.307300 -0.373000 7.038780 8.506556 5.265672 6.974598 -7.917212 -24.633431 -79.581953 53.842363 -54.847443 -0.373106 0.778001 -27.335089 -34.744005 12.032574 -7.537000 7.125000 0.000000 0.000000 -5.331600 -16.722000 -3.587800 
